<svg id="Layer_1" data-name="Layer 1" xmlns="http://www.w3.org/2000/svg" xmlns:xlink="http://www.w3.org/1999/xlink" width="192" height="128" viewBox="0 0 192 128"><defs><clipPath id="clip-path"><path d="M95.97289.00006a31.9444,31.9444,0,1,0,.0022,0h-.0022" fill="none"/></clipPath><radialGradient id="radial-gradient" cx="-1891.83199" cy="2052.41574" r="0.16206" gradientTransform="matrix(197.4678, 0, 0, -197.4678, 373671.89002, 405318.0214)" gradientUnits="userSpaceOnUse"><stop offset="0" stop-color="#fff"/><stop offset="0.7809" stop-color="#fff"/><stop offset="0.81877" stop-color="#f9f8f8"/><stop offset="0.87563" stop-color="#e9e6e3"/><stop offset="0.94407" stop-color="#cfc8c2"/><stop offset="1" stop-color="#b5aba1"/></radialGradient><clipPath id="clip-path-2"><path d="M95.97289,64.00006a31.9444,31.9444,0,1,0,.0022,0h-.0022" fill="none"/></clipPath><radialGradient id="radial-gradient-2" cx="-1891.83199" cy="2052.09164" r="0.16206" gradientTransform="matrix(197.4678, 0, 0, -197.4678, 373671.89002, 405318.0214)" gradientUnits="userSpaceOnUse"><stop offset="0" stop-color="#fff"/><stop offset="0.7809" stop-color="#fff"/><stop offset="0.80453" stop-color="#f8f8f8"/><stop offset="0.84004" stop-color="#e3e3e3"/><stop offset="0.88301" stop-color="#c1c1c1"/><stop offset="0.93185" stop-color="#929292"/><stop offset="0.98494" stop-color="#575757"/><stop offset="1" stop-color="#454545"/></radialGradient></defs><title>Artboard 1</title><g clip-path="url(#clip-path)"><rect x="60.6971" y="0.00006" width="70.60295" height="67.30119" fill="url(#radial-gradient)"/></g><path d="M64.94478,24.31383A31.99275,31.99275,0,1,1,88.31341,63.055,31.98812,31.98812,0,0,1,64.94478,24.31383" fill="#223c72"/><path d="M118.69579,9.44279l-12.86558,8.57644V1.55583q-1.05375-.3387-2.14383-.611a31.8435,31.8435,0,0,0-17.60085.63467V18.021L73.2709,9.47931a31.77806,31.77806,0,0,0-6.93957,10.5453l3.39376,2.26227H65.51944c-.21116.66516-.40442,1.34-.57466,2.027a31.83161,31.83161,0,0,0,.67243,17.71748H69.809l-3.3572,2.23819a32.15684,32.15684,0,0,0,7.04233,10.4742l12.59142-8.39236V62.41721q1.09374.35558,2.22793.63768a31.83868,31.83868,0,0,0,17.51675-.60719V46.35143L118.472,54.77732a31.78219,31.78219,0,0,0,7.06062-10.46156l-3.427-2.28436H126.381q.37877-1.15043.6754-2.34577a31.85148,31.85148,0,0,0-.5696-17.39875h-4.29615l3.46-2.30624a32.146,32.146,0,0,0-6.95482-10.53785" fill="#efebe7"/><path d="M81.164,22.287,69.2844,14.38514a31.73043,31.73043,0,0,0-2.13605,3.77629L73.34971,22.287Zm41.502-7.96385a32.13356,32.13356,0,0,0-2.635-3.44672l-14.20072,9.444V22.287h4.86338ZM69.37231,49.7348a32.109,32.109,0,0,0,2.64143,3.43847l14.07184-9.35821V42.03148H80.95627Zm58.13382-23.33614H101.71822V.524A31.82124,31.82124,0,0,0,90.19747.52986v25.8688H64.50293a31.808,31.808,0,0,0,.04874,11.51613h25.6458V63.46023a31.81451,31.81451,0,0,0,11.52075.02488V37.91479H127.4409a31.82367,31.82367,0,0,0,.06523-11.51613M110.9685,42.03148l11.64235,7.74227a31.728,31.728,0,0,0,2.15649-3.76324l-5.985-3.97924Z" fill="#ed3726"/><path d="M105.83031,4.88613v2.075a3.69345,3.69345,0,0,0,.19225-1.116,2.34043,2.34043,0,0,0-.19225-.959" fill="#2f3e67"/><path d="M.94545,24.31383A31.99275,31.99275,0,1,1,24.31409,63.055,31.98814,31.98814,0,0,1,.94545,24.31383" fill="#f1f1f2"/><path d="M61.59179,19.83256H36.80645v4.89849H63.16538a31.99087,31.99087,0,0,0-1.57359-4.89849M55.2656,10.03117H36.80645v4.90311H59.06314a32.12731,32.12731,0,0,0-3.79754-4.90311M8.89337,54.13087H55.112a31.80991,31.80991,0,0,0,3.85439-4.89829H5.04562a32.11265,32.11265,0,0,0,3.84775,4.89829M39.68773.94371c-.96041-.23806-1.92165-.427-2.88128-.57406V5.13286H49.38639A31.93853,31.93853,0,0,0,39.68773.94371M63.91347,29.62956h-27.107v4.9031H63.896a31.80348,31.80348,0,0,0,.01745-4.9031M2.47945,44.33389H61.52516a32.23292,32.23292,0,0,0,1.53085-4.649c.02126-.08471.03954-.169.05959-.2537H.87734a32.03086,32.03086,0,0,0,1.60211,4.90272M24.31486,63.05372a32.17517,32.17517,0,0,0,5.66863.87856h4.07192A31.99328,31.99328,0,0,0,49.1156,59.02956H14.87212a31.94618,31.94618,0,0,0,9.44274,4.02416" fill="#ed3726"/><path d="M34.38089,32.73656l-.69085-.504-.69286.504.26375-.81192-.69027-.50379h.85363l.26575-.81191.26152.81191h.85586l-.69027.50379ZM30.98218,6.95206l.26333.8165-.69044-.50379-.69229.50379.26534-.8165-.69245-.49921h.85324l.26616-.81628.26392.81628h.85566Zm0,7.36629.26333.81192-.69044-.504-.69229.504.26534-.81192-.69245-.5038h.85324l.26616-.81188.26392.81188h.85566ZM30.919,21.53514l.26374.81212-.69228-.504-.69106.504.26375-.81212L29.37,21.03135h.85626l.26414-.8113.26316.8113h.85565Zm.20072,7.94518-.69268-.50421-.69046.50421.26312-.8119-.69226-.504h.85586l.26374-.81169.26333.81169h.85626l-.69265.504ZM27.71832,10.5208l.26635.81169-.69048-.49878-.695.49878.26593-.81169-.69087-.50379h.85386l.26612-.81131.26115.81131h.85385Zm0,7.13791.26635.81168-.69048-.5038-.695.5038.26593-.81168-.69087-.50381h.85386l.26612-.8119.26115.8119h.85385Zm0,7.29625.26635.81631-.69048-.5036-.695.5036.26593-.81631-.69087-.49921h.85386l.26612-.8165.26115.8165h.85385Zm.26635,7.7816-.69048-.504-.695.504.26593-.81192-.69087-.50379h.85386l.26612-.81191.26115.81191h.85385l-.69087.50379ZM24.58393,6.95206l.26575.8165L24.157,7.26477l-.69286.50379.26554-.8165-.69006-.49921h.85383l.26355-.81628.26376.81628h.85564Zm0,7.36629.26575.81192-.69268-.504-.69286.504.26554-.81192-.69006-.5038h.85383l.26355-.81188.26376.81188h.85564Zm-.061,7.21679.26356.81212-.69307-.504-.68988.504.26375-.81212-.69268-.50379H23.828l.26536-.8113.26392.8113h.85646Zm.19852,7.94518-.69047-.50421-.69245.50421.26332-.8119-.69085-.504H23.765l.26593-.81169.26394.81169h.85346l-.69029.504ZM21.32309,3.38793l.26335.8115L20.896,3.696l-.69289.50342.26376-.8115-.69007-.504h.85546l.26374-.81169.26353.81169h.85626Zm0,7.13287.26335.81169-.69048-.49878-.69289.49878.26376-.81169-.69007-.50379h.85546L20.896,9.2057l.26353.81131h.85626Zm0,7.13791.26335.81168-.69048-.5038-.69289.5038.26376-.81168-.69007-.50381h.85546l.26374-.8119.26353.8119h.85626Zm0,7.29625.26335.81631-.69048-.5036-.69289.5036.26376-.81631-.69007-.49921h.85546l.26374-.8165.26353.8165h.85626Zm.26335,7.7816-.69048-.504-.69289.504.26376-.81192-.69007-.50379h.85546l.26374-.81191.26353.81191h.85626l-.69266.50379ZM18.1879,6.69554l.26593.8163-.69508-.504-.69046.504.26575-.8163-.69268-.49919h.85386l.26353-.81169.26575.81169h.85385Zm0,7.36611.26593.81189-.69508-.49917-.69046.49917.26575-.81189-.69268-.5038h.85386l.26353-.81149.26575.81149h.85385Zm-.06545,7.21716.26617.8119-.69069-.50418-.69508.50418.26575-.8119-.69046-.50378h.85406l.26573-.81171.26154.81171h.85566Zm.20273,7.94961-.69268-.504-.69047.504.26394-.81652-.69286-.49938h.85363l.26576-.8117.26375.8117h.85626l-.69086.49938ZM14.92664,10.5208l.26616.81169-.69068-.49878-.69508.49878.26593-.81169-.69-.50379h.85146l.26774-.81131.26133.81131h.85365Zm0,7.13791.26616.81168-.69068-.5038-.69508.5038.26593-.81168-.69-.50381h.85146l.26774-.8119.26133.8119h.85365Zm0,7.29625.26616.81631-.69068-.5036-.69508.5036L14.073,24.955l-.69-.49921h.85146l.26774-.8165.26133.8165h.85365Zm.26616,7.7816-.69068-.504-.69508.504.26593-.81192-.69-.50379h.85146l.26774-.81191.26133.81191h.85365l-.69046.50379Zm-3.40075-18.745.26355.81211-.69048-.50381-.69308.50381.26615-.81211-.69268-.50379h.85587l.26374-.8115.263.8115h.85665Zm-.06323,7.21717.26353.81171-.69025-.50381-.69288.50381.26354-.81171-.69047-.50378h.85344l.26637-.81192.26091.81192h.85629Zm.19852,7.94477-.6905-.50379-.69064.50379.26334-.81168-.69288-.50381h.85646l.26372-.81171.26556.81171h.85386l-.69289.50381ZM27.02807,2.88391l.26612-.81169.26115.81169h.85385l-.69087.504.26635.8115L27.29419,3.696l-.695.50342.26593-.8115-.69087-.504Zm6.39622,21.57184.26575-.8165.26152.8165H34.807l-.68986.49921.26374.81631-.69085-.5036-.69286.5036.26375-.81631-.69027-.49921Zm0-7.30085L33.69,16.343l.26152.8119H34.807l-.68986.50381.26374.81168-.69085-.5038-.69286.5038.26375-.81168-.69027-.50381Zm0-7.13789L33.69,9.2057l.26152.81131H34.807l-.68986.50379.26374.81169L33.69,10.83371l-.69286.49878.26375-.81169-.69027-.50379Zm0-7.1331L33.69,2.07222l.26152.81169H34.807l-.68986.504.26374.8115L33.69,3.696l-.69286.50342.26375-.8115-.69027-.504ZM8.5304,17.65871l.26374.81168-.69227-.5038-.69029.5038.26336-.81168-.69267-.50381h.85344l.26616-.8119.26335.8119h.85645Zm0,7.29625.26374.81631-.69227-.5036-.69029.5036.26336-.81631-.69267-.49921h.85344l.26616-.8165.26335.8165h.85645Zm.26374,7.7816-.69268-.504-.68988.504.26336-.81192-.69309-.50379h.85386l.26575-.81191.26353.81191h.85668l-.69127.50379ZM5.32876,21.08272l.26536.8117-.6927-.50339-.69086.50339.264-.8117-.69268-.50379h.85625l.26334-.81169.26575.81169H6.021Zm.20211,7.94479-.69006-.50381-.69508.50381.26616-.81171L3.721,27.712h.85385l.26594-.81169.26094.81169H5.9584l-.69327.50381Zm-3.13439,3.709-.69087-.504-.69265.504.26353-.81192L.586,31.42085h.85606l.26353-.81191.266.81191h.85124l-.68986.50379ZM36.8064.36973C36.49205.32155,34.15974.06567,33.84583.02712l-5.751.21175A32.0754,32.0754,0,0,0,11.93758,7.0787l.118.3631-.29949-.21837A31.96986,31.96986,0,0,0,8.74958,10.017h.47209l-.69127.50379.26374.81169-.69227-.49878-.276.1991q-.968,1.11459-1.835,2.32451h.09556l-.20072.14552q-.20985.29688-.41388.59835l.18545.57163-.38074-.275A31.94973,31.94973,0,0,0,.94469,24.31306c-.01183.04736-.02207.095-.03332.14269h.53071l.26353-.8165.266.8165h.85124L2.133,24.955l.26353.81631-.69087-.5036-.69265.5036.26353-.81631-.41207-.29807A31.943,31.943,0,0,0,.1043,34.57452H36.8064Z" fill="#223c72"/><path d="M128.94543,24.31341a31.99208,31.99208,0,1,1,23.36813,38.74075,31.98771,31.98771,0,0,1-23.36813-38.74075" fill="#0076bd"/><path d="M139.59094,43.40933l-.82151-2.51954-.81628,2.52456h-2.64842l2.14321,1.55753-.81647,2.51393,2.143-1.55795,2.14321,1.55795-.8217-2.51934,2.13776-1.55714Zm-4.01763-9.31948,2.14859,1.5525-.8271-2.51372,2.13776-1.56335-2.64817.00545-.82715-2.51354-.81069,2.51914-2.648.01064,2.1486,1.54728-.81148,2.51854Zm37.38894,18.4178-.81107-2.51915-.82717,2.51372-2.64258-.01065,2.13737,1.563-.8319,2.51955,2.1482-1.55291,2.13738,1.56335-.81064-2.51895,2.14839-1.55251Zm-24.33684.0592-.81647-2.51353-.81653,2.51855-2.64776.00541,2.14319,1.55252-.81108,2.51914,2.13762-1.563,2.14276,1.55232-.82152-2.51374,2.138-1.55772Zm12.36975,3.26539-.82211-2.51351-.81613,2.52454h-2.64259l2.13782,1.55753-.80565,2.51374,2.13757-1.55753,2.14841,1.54688-.82691-2.51372,2.13218-1.55793ZM181.98026,43.425l-.82172-2.51352L180.342,43.425l-2.64777.00543,2.1482,1.55231-.81648,2.51935,2.13777-1.55794,2.14321,1.55231-.82231-2.51372,2.1436-1.563Zm5.84938-11.89141-2.64823-.011L184.376,29.0034l-.83275,2.51371-2.648-.01064,2.13757,1.563-.82672,2.51372,2.14781-1.54689,2.13821,1.568-.81089-2.52418Zm-9.00743-8.31511,2.13723-1.55692,2.14321,1.55692-.82132-2.51332,2.14281-1.56317-2.648.00545-.8219-2.52418-.81609,2.52418h-2.648l2.14863,1.55772ZM172.29088,7.83585l-.81109,2.51351-2.64821.00543,2.14864,1.55233-.81652,2.51934,2.138-1.55254,2.14282,1.5469-.822-2.5137,2.138-1.563-2.64259.00522ZM136.44359,23.41214l2.13776-1.55753,2.143,1.5525-.82153-2.51953,2.143-1.55753h-2.648l-.82209-2.51351-.81614,2.51892-2.64778.005,2.14282,1.55251Zm9.02926-9.02344,2.14278-1.55793,2.13781,1.55252-.81672-2.51934,2.13821-1.55732h-2.643L147.61,7.79289l-.81614,2.51873h-2.648l2.14319,1.55233Zm12.34785-3.29811,2.14321-1.55751,2.143,1.55751-.81613-2.51913,2.13762-1.55192h-2.648l-.81647-2.51915-.81633,2.51915h-2.648l2.13757,1.55192Z" fill="#ffd201"/><g clip-path="url(#clip-path-2)"><rect x="60.6971" y="64.00006" width="70.60295" height="67.30119" fill="url(#radial-gradient-2)"/></g><path d="M64.94478,88.31383A31.99275,31.99275,0,1,1,88.31341,127.055,31.98812,31.98812,0,0,1,64.94478,88.31383" fill="#666"/><path d="M118.69579,73.44279l-12.86558,8.57644V65.55583q-1.05375-.3387-2.14383-.611a31.8435,31.8435,0,0,0-17.60085.63467V82.021L73.2709,73.47931a31.77806,31.77806,0,0,0-6.93957,10.5453l3.39376,2.26227H65.51944c-.21116.66516-.40442,1.34-.57466,2.027a31.83161,31.83161,0,0,0,.67243,17.71748H69.809l-3.3572,2.23819a32.15684,32.15684,0,0,0,7.04233,10.4742l12.59142-8.39236v16.06578q1.09374.35558,2.22793.63768a31.83868,31.83868,0,0,0,17.51675-.60719V110.35143l12.64174,8.42589a31.78219,31.78219,0,0,0,7.06062-10.46156l-3.427-2.28436H126.381q.37877-1.15043.6754-2.34577a31.85148,31.85148,0,0,0-.5696-17.39875h-4.29615l3.46-2.30624a32.146,32.146,0,0,0-6.95482-10.53785" fill="#fff"/><path d="M81.164,86.287,69.2844,78.38514a31.73043,31.73043,0,0,0-2.13605,3.77629L73.34971,86.287Zm41.502-7.96385a32.13356,32.13356,0,0,0-2.635-3.44672l-14.20072,9.444V86.287h4.86338ZM69.37231,113.7348a32.109,32.109,0,0,0,2.64143,3.43847l14.07184-9.35821v-1.78358H80.95627Zm58.13382-23.33614H101.71822V64.524a31.82124,31.82124,0,0,0-11.52075.00582v25.8688H64.50293a31.808,31.808,0,0,0,.04874,11.51613h25.6458v25.54544a31.81451,31.81451,0,0,0,11.52075.02488V101.91479H127.4409a31.82367,31.82367,0,0,0,.06523-11.51613M110.9685,106.03148l11.64235,7.74227a31.728,31.728,0,0,0,2.15649-3.76324l-5.985-3.97924Z" fill="#bababa"/><path d="M105.83031,68.88613v2.075a3.69345,3.69345,0,0,0,.19225-1.116,2.34043,2.34043,0,0,0-.19225-.959" fill="gray"/><path d="M.94545,88.31383A31.99275,31.99275,0,1,1,24.31409,127.055,31.98814,31.98814,0,0,1,.94545,88.31383" fill="#fafafa"/><path d="M61.59179,83.83256H36.80645v4.89849H63.16538a31.99087,31.99087,0,0,0-1.57359-4.89849M55.2656,74.03117H36.80645v4.90311H59.06314a32.12731,32.12731,0,0,0-3.79754-4.90311M8.89337,118.13087H55.112a31.80991,31.80991,0,0,0,3.85439-4.89829H5.04562a32.11265,32.11265,0,0,0,3.84775,4.89829M39.68773,64.94371c-.96041-.23806-1.92165-.42695-2.88128-.57406v4.76321H49.38639a31.93853,31.93853,0,0,0-9.69866-4.18915M63.91347,93.62956h-27.107v4.9031H63.896a31.80348,31.80348,0,0,0,.01745-4.9031m-61.434,14.70433H61.52516a32.23292,32.23292,0,0,0,1.53085-4.649c.02126-.08471.03954-.169.05959-.2537H.87734a32.03086,32.03086,0,0,0,1.60211,4.90272m21.83541,18.71983a32.17517,32.17517,0,0,0,5.66863.87856h4.07192a31.99328,31.99328,0,0,0,15.06019-4.90272H14.87212a31.94618,31.94618,0,0,0,9.44274,4.02416" fill="#bababa"/><path d="M34.38089,96.73656l-.69085-.504-.69286.504.26375-.81192-.69027-.50379h.85363l.26575-.81191.26152.81191h.85586l-.69027.50379Zm-3.39871-25.7845.26333.8165-.69044-.50379-.69229.50379.26534-.8165-.69245-.49921h.85324l.26616-.81628.26392.81628h.85566Zm0,7.36629.26333.81192-.69044-.504-.69229.504.26534-.81192-.69245-.5038h.85324l.26616-.81188.26392.81188h.85566ZM30.919,85.53514l.26374.81212-.69228-.504-.69106.504.26375-.81212L29.37,85.03135h.85626l.26414-.8113.26316.8113h.85565Zm.20072,7.94518-.69268-.50421-.69046.50421.26312-.8119-.69226-.504h.85586l.26374-.81169.26333.81169h.85626l-.69265.504ZM27.71832,74.5208l.26635.81169-.69048-.49878-.695.49878.26593-.81169-.69087-.50379h.85386l.26612-.81131.26115.81131h.85385Zm0,7.13791.26635.81168-.69048-.5038-.695.5038.26593-.81168-.69087-.50381h.85386l.26612-.8119.26115.8119h.85385Zm0,7.29625.26635.81631-.69048-.5036-.695.5036.26593-.81631-.69087-.49921h.85386l.26612-.8165.26115.8165h.85385Zm.26635,7.7816-.69048-.504-.695.504.26593-.81192-.69087-.50379h.85386l.26612-.81191.26115.81191h.85385l-.69087.50379Zm-3.40074-25.7845.26575.8165-.69268-.50379-.69286.50379.26554-.8165-.69006-.49921h.85383l.26355-.81628.26376.81628h.85564Zm0,7.36629.26575.81192-.69268-.504-.69286.504.26554-.81192-.69006-.5038h.85383l.26355-.81188.26376.81188h.85564Zm-.061,7.21679.26356.81212-.69307-.504-.68988.504.26375-.81212-.69268-.50379H23.828l.26536-.8113.26392.8113h.85646Zm.19852,7.94518-.69047-.50421-.69245.50421.26332-.8119-.69085-.504H23.765l.26593-.81169.26394.81169h.85346l-.69029.504ZM21.32309,67.38793l.26335.8115L20.896,67.696l-.69289.50342.26376-.8115-.69007-.504h.85546l.26374-.81169.26353.81169h.85626Zm0,7.13287.26335.81169-.69048-.49878-.69289.49878.26376-.81169-.69007-.50379h.85546l.26374-.81131.26353.81131h.85626Zm0,7.13791.26335.81168-.69048-.5038-.69289.5038.26376-.81168-.69007-.50381h.85546l.26374-.8119.26353.8119h.85626Zm0,7.29625.26335.81631-.69048-.5036-.69289.5036.26376-.81631-.69007-.49921h.85546l.26374-.8165.26353.8165h.85626Zm.26335,7.7816-.69048-.504-.69289.504.26376-.81192-.69007-.50379h.85546l.26374-.81191.26353.81191h.85626l-.69266.50379Zm-3.39854-26.041.26593.8163-.69508-.504-.69046.504.26575-.8163-.69268-.49919h.85386l.26353-.81169.26575.81169h.85385Zm0,7.36611.26593.81189-.69508-.49917-.69046.49917.26575-.81189-.69268-.5038h.85386l.26353-.81149.26575.81149h.85385Zm-.06545,7.21716.26617.8119-.69069-.50418-.69508.50418.26575-.8119-.69046-.50378h.85406l.26573-.81171.26154.81171h.85566Zm.20273,7.94961-.69268-.504-.69047.504.26394-.81652-.69286-.49938h.85363l.26576-.8117.26375.8117h.85626l-.69086.49938ZM14.92664,74.5208l.26616.81169-.69068-.49878-.69508.49878.26593-.81169-.69-.50379h.85146l.26774-.81131.26133.81131h.85365Zm0,7.13791.26616.81168-.69068-.5038-.69508.5038.26593-.81168-.69-.50381h.85146l.26774-.8119.26133.8119h.85365Zm0,7.29625.26616.81631-.69068-.5036-.69508.5036L14.073,88.955l-.69-.49921h.85146l.26774-.8165.26133.8165h.85365Zm.26616,7.7816-.69068-.504-.69508.504.26593-.81192-.69-.50379h.85146l.26774-.81191.26133.81191h.85365l-.69046.50379Zm-3.40075-18.745.26355.81211-.69048-.50381-.69308.50381.26615-.81211-.69268-.50379h.85587l.26374-.8115.263.8115h.85665Zm-.06323,7.21717.26353.81171-.69025-.50381-.69288.50381.26354-.81171-.69047-.50378h.85344l.26637-.81192.26091.81192h.85629Zm.19852,7.94477-.6905-.50379-.69064.50379.26334-.81168-.69288-.50381h.85646l.26372-.81171.26556.81171h.85386l-.69289.50381ZM27.02807,66.88391l.26612-.81169.26115.81169h.85385l-.69087.504.26635.8115-.69048-.50342-.695.50342.26593-.8115-.69087-.504Zm6.39622,21.57184.26575-.8165.26152.8165H34.807l-.68986.49921.26374.81631-.69085-.5036-.69286.5036.26375-.81631-.69027-.49921Zm0-7.30085L33.69,80.343l.26152.8119H34.807l-.68986.50381.26374.81168-.69085-.5038-.69286.5038.26375-.81168-.69027-.50381Zm0-7.13789L33.69,73.2057l.26152.81131H34.807l-.68986.50379.26374.81169L33.69,74.83371l-.69286.49878.26375-.81169-.69027-.50379Zm0-7.1331.26575-.81169.26152.81169H34.807l-.68986.504.26374.8115L33.69,67.696l-.69286.50342.26375-.8115-.69027-.504ZM8.5304,81.65871l.26374.81168-.69227-.5038-.69029.5038.26336-.81168-.69267-.50381h.85344l.26616-.8119.26335.8119h.85645Zm0,7.29625.26374.81631-.69227-.5036-.69029.5036.26336-.81631-.69267-.49921h.85344l.26616-.8165.26335.8165h.85645Zm.26374,7.7816-.69268-.504-.68988.504.26336-.81192-.69309-.50379h.85386l.26575-.81191.26353.81191h.85668l-.69127.50379ZM5.32876,85.08272l.26536.8117-.6927-.50339-.69086.50339.264-.8117-.69268-.50379h.85625l.26334-.81169.26575.81169H6.021Zm.20211,7.94479-.69006-.50381-.69508.50381.26616-.81171L3.721,91.712h.85385l.26594-.81169.26094.81169H5.9584l-.69327.50381Zm-3.13439,3.709-.69087-.504-.69265.504.26353-.81192L.586,95.42085h.85606l.26353-.81191.266.81191h.85124l-.68986.50379ZM36.8064,64.36973c-.31435-.04818-2.64666-.30406-2.96057-.34261l-5.751.21175A32.0754,32.0754,0,0,0,11.93758,71.0787l.118.3631-.29949-.21837A31.96986,31.96986,0,0,0,8.74958,74.017h.47209l-.69127.50379.26374.81169-.69227-.49878-.276.1991q-.968,1.11459-1.835,2.32451h.09556l-.20072.14552q-.20985.29688-.41388.59835l.18545.57163-.38074-.275A31.94973,31.94973,0,0,0,.94469,88.31306c-.01183.04736-.02207.095-.03332.14269h.53071l.26353-.8165.266.8165h.85124L2.133,88.955l.26353.81631-.69087-.5036-.69265.5036.26353-.81631-.41207-.29807A31.943,31.943,0,0,0,.1043,98.57452H36.8064Z" fill="#666"/><path d="M128.94543,88.31341a31.99208,31.99208,0,1,1,23.36813,38.74075,31.98771,31.98771,0,0,1-23.36813-38.74075" fill="#6b6b6b"/><path d="M139.59094,107.40933l-.82151-2.51954-.81628,2.52456h-2.64842l2.14321,1.55753-.81647,2.51393,2.143-1.558,2.14321,1.558-.8217-2.51934,2.13776-1.55714Zm-4.01763-9.31948,2.14859,1.5525-.8271-2.51372,2.13776-1.56335-2.64817.00545-.82715-2.51354-.81069,2.51914-2.648.01064,2.1486,1.54728-.81148,2.51854Zm37.38894,18.4178-.81107-2.51915-.82717,2.51372-2.64258-.01065,2.13737,1.563-.8319,2.51955,2.1482-1.55291,2.13738,1.56335-.81064-2.519,2.14839-1.55251Zm-24.33684.0592-.81647-2.51353-.81653,2.51855-2.64776.00541,2.14319,1.55252-.81108,2.51914,2.13762-1.563,2.14276,1.55232-.82152-2.51374,2.138-1.55772Zm12.36975,3.26539-.82211-2.51351-.81613,2.52454h-2.64259l2.13782,1.55753-.80565,2.51374,2.13757-1.55753,2.14841,1.54688-.82691-2.51372,2.13218-1.55793Zm20.9851-12.40726-.82172-2.51352L180.342,107.425l-2.64777.00543,2.1482,1.55231-.81648,2.51935,2.13777-1.55794,2.14321,1.55231-.82231-2.51372,2.1436-1.563Zm5.84938-11.89141-2.64823-.011L184.376,93.0034l-.83275,2.51371-2.648-.01064,2.13757,1.563-.82672,2.51372,2.14781-1.54689,2.13821,1.568-.81089-2.52418Zm-9.00743-8.31511,2.13723-1.55692,2.14321,1.55692-.82132-2.51332,2.14281-1.56317-2.648.00545-.8219-2.52418-.81609,2.52418h-2.648l2.14863,1.55772Zm-6.53133-15.38261-.81109,2.51351-2.64821.00543,2.14864,1.55233-.81652,2.51934,2.138-1.55254,2.14282,1.5469-.822-2.5137,2.138-1.563-2.64259.00522ZM136.44359,87.41214l2.13776-1.55753,2.143,1.5525-.82153-2.51953,2.143-1.55753h-2.648l-.82209-2.51351-.81614,2.51892-2.64778.005,2.14282,1.55251Zm9.02926-9.02344,2.14278-1.55793,2.13781,1.55252-.81672-2.51934,2.13821-1.55732h-2.643L147.61,71.79289l-.81614,2.51873h-2.648l2.14319,1.55233Zm12.34785-3.29811,2.14321-1.55751,2.143,1.55751-.81613-2.51913,2.13762-1.55192h-2.648l-.81647-2.51915-.81633,2.51915h-2.648l2.13757,1.55192Z" fill="#d9d9d9"/></svg>